<?xml version="1.0" encoding="UTF-8" standalone="no"?>
<!DOCTYPE svg PUBLIC "-//W3C//DTD SVG 1.1//EN" "http://www.w3.org/Graphics/SVG/1.1/DTD/svg11.dtd">
<svg width="100%" height="100%" viewBox="0 0 1967 539" version="1.1" xmlns="http://www.w3.org/2000/svg" xmlns:xlink="http://www.w3.org/1999/xlink" xml:space="preserve" xmlns:serif="http://www.serif.com/" style="fill-rule:evenodd;clip-rule:evenodd;">
    <g transform="matrix(1,0,0,1,-265.48,-363)">
        <g transform="matrix(2.66857,0,0,0.672346,187.571,433.383)">
            <rect x="50" y="50" width="700" height="20" style="fill:rgb(221,221,221);"/>
        </g>
        <g transform="matrix(2.69857,0,0,0.722346,165.071,362.382)">
            <rect x="50" y="50" width="700" height="20" style="fill:rgb(221,221,221);"/>
        </g>
        <g transform="matrix(2.69857,0,0,2.69857,547.055,451.044)">
            <text x="0px" y="0px" style="font-family:'ArialMT', 'Arial', sans-serif;font-size:14px;">A-rich region</text>
        </g>
        <g transform="matrix(2.69857,0,0,2.69857,1609.06,390.044)">
            <text x="0px" y="0px" style="font-family:'ArialMT', 'Arial', sans-serif;font-size:14px;">A-rich region</text>
        </g>
        <g transform="matrix(0.746667,0,0,0.741071,487.667,392.071)">
            <rect x="125" y="100" width="150" height="20" style="fill:rgb(246,185,59);"/>
        </g>
        <g transform="matrix(0.746667,0,0,0.741071,1566.67,323.893)">
            <rect x="125" y="100" width="150" height="20" style="fill:rgb(246,185,59);"/>
        </g>
        <g transform="matrix(5.42,0,0,2.95313,-331.6,105.03)">
            <path d="M180,150L280,150" style="fill:none;fill-rule:nonzero;stroke:rgb(96,163,188);stroke-width:1.43px;"/>
        </g>
        <g transform="matrix(5.42,0,0,2.95313,-356.6,130.03)">
            <path d="M180,150L280,150" style="fill:none;fill-rule:nonzero;stroke:rgb(96,163,188);stroke-width:1.43px;"/>
        </g>
        <g transform="matrix(5.42,0,0,2.95313,199.4,141.03)">
            <path d="M180,150L280,150" style="fill:none;fill-rule:nonzero;stroke:rgb(96,163,188);stroke-width:1.43px;"/>
        </g>
        <g transform="matrix(5.42,0,0,2.95313,223.4,165.03)">
            <path d="M180,150L280,150" style="fill:none;fill-rule:nonzero;stroke:rgb(96,163,188);stroke-width:1.43px;"/>
        </g>
        <g transform="matrix(4.64,0,0,2.95313,872.8,337.03)">
            <path d="M180,150L280,150" style="fill:none;fill-rule:nonzero;stroke:black;stroke-width:1.61px;"/>
        </g>
        <g transform="matrix(6.16,0,0,2.95313,-246.8,327.03)">
            <path d="M180,150L280,150" style="fill:none;fill-rule:nonzero;stroke:black;stroke-width:1.29px;"/>
        </g>
        <g transform="matrix(6.16,0,0,2.95313,-105.8,362.03)">
            <path d="M180,150L280,150" style="fill:none;fill-rule:nonzero;stroke:black;stroke-width:1.29px;"/>
        </g>
        <g transform="matrix(4.28,0,0,2.95313,-352.4,355.03)">
            <path d="M180,150L280,150" style="fill:none;fill-rule:nonzero;stroke:black;stroke-width:1.7px;"/>
        </g>
        <g transform="matrix(3.52,0,0,2.95313,-335.6,327.03)">
            <path d="M180,150L280,150" style="fill:none;fill-rule:nonzero;stroke:black;stroke-width:1.92px;"/>
        </g>
        <g transform="matrix(2.95313,0,0,2.95313,1344.12,-37.2465)">
            <path d="M280,145L290,150L280,155L280,145Z" style="fill:rgb(221,221,221);fill-rule:nonzero;"/>
        </g>
        <g transform="matrix(-2.95313,-3.61654e-16,3.61654e-16,-2.95313,1153.41,916.193)">
            <path d="M280,145L290,150L280,155L280,145Z" style="fill:rgb(221,221,221);fill-rule:nonzero;"/>
        </g>
        <g transform="matrix(2.69857,0,0,2.69857,1088.48,528.044)">
            <text x="0px" y="0px" style="font-family:'ArialMT', 'Arial', sans-serif;font-size:14px;fill:rgb(96,163,188);">Internally primed read</text>
        </g>
        <g transform="matrix(2.69857,0,0,2.69857,1052.12,749.044)">
            <text x="0px" y="0px" style="font-family:'ArialMT', 'Arial', sans-serif;font-size:14px;">Non-internally primed read</text>
        </g>
        <g transform="matrix(0.510112,0,0,0.532781,165.844,226.475)">
            <g transform="matrix(79.5746,0,0,79.5746,252.448,488)">
            </g>
            <text x="193px" y="488px" style="font-family:'ArialMT', 'Arial', sans-serif;font-size:79.575px;fill:rgb(221,221,221);stroke:rgb(221,221,221);stroke-width:1.92px;stroke-linejoin:round;stroke-miterlimit:2;">3&apos;</text>
        </g>
        <g transform="matrix(0.510112,0,0,0.532781,2104.86,226.351)">
            <g transform="matrix(79.5746,0,0,79.5746,252.448,488)">
            </g>
            <text x="193px" y="488px" style="font-family:'ArialMT', 'Arial', sans-serif;font-size:79.575px;fill:rgb(221,221,221);stroke:rgb(221,221,221);stroke-width:1.92px;stroke-linejoin:round;stroke-miterlimit:2;">5&apos;</text>
        </g>
        <g transform="matrix(0.510112,0,0,0.532781,165.844,158.475)">
            <g transform="matrix(79.5746,0,0,79.5746,252.448,488)">
            </g>
            <text x="193px" y="488px" style="font-family:'ArialMT', 'Arial', sans-serif;font-size:79.575px;fill:rgb(221,221,221);stroke:rgb(221,221,221);stroke-width:1.92px;stroke-linejoin:round;stroke-miterlimit:2;">5&apos;</text>
        </g>
        <g transform="matrix(0.510112,0,0,0.532781,2104.86,158.351)">
            <g transform="matrix(79.5746,0,0,79.5746,252.448,488)">
            </g>
            <text x="193px" y="488px" style="font-family:'ArialMT', 'Arial', sans-serif;font-size:79.575px;fill:rgb(221,221,221);stroke:rgb(221,221,221);stroke-width:1.92px;stroke-linejoin:round;stroke-miterlimit:2;">3&apos;</text>
        </g>
        <g transform="matrix(1.24781,0,0,1.24781,-147.723,-115.72)">
            <path d="M584,471L584,814" style="fill:none;stroke:black;stroke-width:1.67px;stroke-linecap:round;stroke-linejoin:round;stroke-miterlimit:1.5;stroke-dasharray:1.67,3.34,0,0,0,0;"/>
        </g>
        <g transform="matrix(1.24781,0,0,1.24781,-34.723,-115.72)">
            <path d="M584,471L584,814" style="fill:none;stroke:black;stroke-width:1.67px;stroke-linecap:round;stroke-linejoin:round;stroke-miterlimit:1.5;stroke-dasharray:1.67,3.34,0,0,0,0;"/>
        </g>
        <g transform="matrix(1.24781,0,0,1.4519,1043.28,-281.843)">
            <path d="M584,471L584,814" style="fill:none;stroke:black;stroke-width:1.54px;stroke-linecap:round;stroke-linejoin:round;stroke-miterlimit:1.5;stroke-dasharray:1.54,3.08,0,0,0,0;"/>
        </g>
        <g transform="matrix(1.24781,0,0,1.4519,932.277,-281.843)">
            <path d="M584,471L584,814" style="fill:none;stroke:black;stroke-width:1.54px;stroke-linecap:round;stroke-linejoin:round;stroke-miterlimit:1.5;stroke-dasharray:1.54,3.08,0,0,0,0;"/>
        </g>
    </g>
</svg>
